<?xml version="1.0" standalone="no"?>
<!DOCTYPE svg PUBLIC "-//W3C//DTD SVG 20010904//EN"
 "http://www.w3.org/TR/2001/REC-SVG-20010904/DTD/svg10.dtd">
<svg version="1.0" xmlns="http://www.w3.org/2000/svg"
 width="300.000000pt" height="300.000000pt" viewBox="0 0 300.000000 300.000000"
 preserveAspectRatio="xMidYMid meet">
<metadata>
Created by potrace 1.14, written by Peter Selinger 2001-2017
</metadata>
<g transform="translate(0.000000,300.000000) scale(0.100000,-0.100000)"
fill="#000000" stroke="none">
<path d="M592 2989 c-29 -5 -87 -22 -130 -39 -202 -78 -357 -243 -430 -455
l-27 -80 0 -915 0 -915 28 -80 c45 -128 91 -202 186 -295 95 -94 174 -142 301
-182 l75 -23 905 0 905 0 75 23 c130 41 206 87 305 187 100 99 146 175 187
305 l23 75 0 910 0 910 -28 80 c-44 126 -92 202 -181 290 -92 91 -175 143
-291 183 l-80 27 -885 2 c-487 0 -909 -3 -938 -8z m1071 -544 c203 -35 366
-122 517 -275 172 -173 261 -370 276 -610 42 -633 -540 -1130 -1163 -996 -303
65 -571 295 -687 587 -106 270 -79 591 70 841 53 89 197 243 277 297 211 143
466 199 710 156z"/>
</g>
</svg>
